<?xml version="1.0" encoding="UTF-8"?><svg id="a" xmlns="http://www.w3.org/2000/svg" xmlns:xlink="http://www.w3.org/1999/xlink" viewBox="0 0 32 32"><defs><clipPath id="b"><rect width="32" height="32" style="fill:none;"/></clipPath></defs><g style="clip-path:url(#b);"><g><path d="M24.82,0H7.18C3.22,0,0,3.22,0,7.18V24.82c0,3.97,3.22,7.18,7.18,7.18H24.82c3.97,0,7.18-3.22,7.18-7.18V7.18c0-3.97-3.22-7.18-7.18-7.18Z" style="fill:#4c76be;"/><path d="M18.69,10.3h1.83v-2.8c-.29,0-.59-.07-.89-.09h-1.65c-.83,0-1.64,.25-2.33,.72-.38,.27-.7,.62-.94,1.02-.24,.4-.4,.84-.47,1.31-.06,.4-.1,.8-.1,1.2v2.12h-2.67v3.11h2.66v7.84h3.25v-7.85h2.65l.41-3.14h-3.08v-2.22c.06-.92,.6-1.2,1.33-1.22Z" style="fill:#fff; fill-rule:evenodd;"/></g></g></svg>