<svg xmlns="http://www.w3.org/2000/svg" viewBox="0 0 32 32"><path d="M9.64 20.58c.08 3.33.15 2.91-1.24 2.91-1.76 0-1.19-.87-2.34-1.26v6.71c.52-.16.52-.27.9-.68.64-.69 1.31-.45 3.07-.45h5.14c1.32 0 1.1 1.03 2 1.2v-6.85c-1.02.22-.59 1.31-2.26 1.34-.7.01-.95.06-1.19-.18-.29-.28-.17-2.52-.16-2.55.2-.46-.16-.07.46-.36 1.43-.67 2.26-1 3.46-2.48 1.81-2.22 1.89-5.44.62-7.94-.5-.99-.89-1.33-1.54-1.97-2.69-2.65-7.05-2.62-9.8-.13-3.87 3.49-3.01 9.11.55 11.54.96.65 1.41.72 2.34 1.15m9.96 1.66v6.69c.47-.1.39-.09.78-.51.85-.92 1.01-.61 3.31-.61.52 0 2.15-.07 2.55.03.55.13.91.94 1.49 1.17l.03-6.77c-1.33.4-.14 1.27-2.87 1.25l-.08-1.42-2.3-.06c-.08 1.06.28 1.83-1.24 1.46-.74-.18-.89-1.02-1.68-1.23m1.92-.67h4.21c.17-1.02-.13-1.06.47-1.68 1.84-1.9 1.79-.64 5.75-1.01v-1.77c-1.11-.11-2.51-.04-3.65-.04-.43 0-1.52-.05-1.88.04-.41.11-.75.61-1.04.89-1.28 1.28-.76.83-2.78.88-.74.02-1.03.18-1.12.79-.07.43-.02 1.46.04 1.89m8.64 7.56c.46-.21 1.09-.88 1.45-1.24.54-.54.35-2.21.35-3.46 0-.69.1-.63-.3-1.06-.54-.57-.95-1.05-1.49-1.16v6.92zm-26.52-.1l.06-6.82c-.52.08-.48.13-.82.48-1.21 1.23-.96.71-.97 2.96 0 .94-.19 1.74.33 2.25.32.32.96 1.05 1.41 1.13" fill="#16224d" fill-rule="evenodd"/><path fill="#14bcd3" fill-rule="evenodd" d="M28.15 27.11l1.77.03.03-3.1H28.2l-.05 3.07zm-10.66 0l1.74.04.03-3.1-1.73-.01-.04 3.07zm-13.58.01l1.76.01.02-3.05-1.71-.03-.07 3.07z"/><path d="M17.51 29.35l1.68.02c.19-.59.12-1.34.05-1.96h-1.71l-.01 1.94zm10.63-.02l1.77.01v-1.9l-1.73-.05-.04 1.94zm-24.2.02l1.69.01.06-1.93-1.73-.03-.02 1.95zm-.02-5.58l1.77.02V22l-1.76-.03-.01 1.8zm13.6.03h1.75l.01-1.78-1.77-.01.01 1.79zm10.62-.03l1.77.01v-1.76l-1.74-.05-.03 1.8z" fill="#535353" fill-rule="evenodd"/><path d="M11.48 5.37a8.12 8.12 0 110 16.24c-4.49 0-8.11-3.64-8.11-8.12S7 5.37 11.48 5.37" fill="#16224d" fill-rule="evenodd"/><path d="M11.48 6.57c3.82 0 6.91 3.09 6.91 6.91s-3.09 6.91-6.91 6.91-6.91-3.09-6.91-6.91 3.09-6.91 6.91-6.91" fill="#fff" fill-rule="evenodd"/><circle cx="11.48" cy="13.49" r="6.17" transform="rotate(-89.61 11.485 13.487)" fill="none" stroke="#16224d" stroke-miterlimit="2.61" stroke-width="10.62"/><path d="M11.48 7.31c3.41 0 6.17 2.76 6.17 6.17s-2.76 6.17-6.17 6.17-6.17-2.76-6.17-6.17 2.76-6.17 6.17-6.17" fill="#fff" fill-rule="evenodd"/><path fill="none" stroke="#16224d" stroke-miterlimit="2.61" stroke-width=".5" d="M11.48 7.71v.81m2.88-.04l-.41.7m2.51 1.4l-.7.41m1.47 2.46h-.81m.04 2.88l-.7-.41m-1.4 2.51l-.41-.7m-2.47.66v.81m-2.46-1.47l-.41.7m-1.4-2.51l-.7.41m.04-2.88h-.81m1.47-2.46l-.7-.41m2.51-1.4l-.41-.7"/><path fill="#0ff" fill-rule="evenodd" d="M11.48 10.37l.28 2.91.28 2.9h-1.11l.28-2.9.27-2.91z"/></svg>