<svg width="32" height="32" fill="none" xmlns="http://www.w3.org/2000/svg"><path d="M16.976 8.96l-6.834 11.836a4.481 4.481 0 014.33 2.5l6.832-11.832c-.016.001-.032.005-.049.006a4.477 4.477 0 01-2.496-.595 4.477 4.477 0 01-1.713-1.764c-.026-.05-.046-.102-.07-.152z" fill="#16224D" stroke="#16224D"/><path d="M21.819 2.574c-1.819-.333-3.73.46-4.707 2.154a4.497 4.497 0 003.31 6.713 4.497 4.497 0 004.484-2.213c.977-1.693.709-3.745-.489-5.154L22.792 6.89c-.407.705-1.314.937-2.033.522-.72-.416-.972-1.317-.565-2.022l1.625-2.816zM7.029 28.19c-1.197-1.408-1.465-3.46-.488-5.153a4.5 4.5 0 117.794 4.5c-.977 1.693-2.888 2.486-4.707 2.153l1.625-2.814c.407-.705.155-1.607-.565-2.022-.72-.416-1.626-.183-2.033.522L7.03 28.19l-.001.001z" stroke="#16224D"/><path d="M17.34 13.205l-3.515 6.09" stroke="#16224D" stroke-linecap="round"/></svg>