<svg width="32" height="32" fill="none" xmlns="http://www.w3.org/2000/svg"><path d="M22.88 18.848a.585.585 0 00-.582.582c0 .32.262.583.582.583.32 0 .582-.263.582-.583a.585.585 0 00-.582-.582zm-13.024.525a2.128 2.128 0 00-2.125 2.124c0 1.172.954 2.125 2.125 2.125a2.128 2.128 0 002.125-2.125 2.128 2.128 0 00-2.125-2.124z" fill="#16224D"/><path d="M22.88 15.283a4.143 4.143 0 00-4.14 4.141 4.143 4.143 0 004.14 4.14 4.143 4.143 0 004.14-4.14 4.143 4.143 0 00-4.14-4.14zm0 5.53c-.762 0-1.389-.621-1.389-1.389 0-.762.621-1.389 1.389-1.389.762 0 1.389.621 1.389 1.389a1.396 1.396 0 01-1.389 1.389z" fill="#16224D"/><path d="M22.88 14.477a4.955 4.955 0 00-4.947 4.947 4.955 4.955 0 004.947 4.947 4.955 4.955 0 004.947-4.947 4.955 4.955 0 00-4.947-4.947zm0 9.094a4.143 4.143 0 01-4.14-4.14 4.143 4.143 0 014.14-4.141 4.143 4.143 0 014.14 4.14 4.143 4.143 0 01-4.14 4.141zM9.856 18.566a2.935 2.935 0 00-2.931 2.932 2.939 2.939 0 002.931 2.93 2.939 2.939 0 002.931-2.93 2.935 2.935 0 00-2.931-2.932zm0 5.063a2.128 2.128 0 01-2.125-2.125c0-1.171.954-2.125 2.125-2.125s2.125.954 2.125 2.125a2.128 2.128 0 01-2.125 2.125z" fill="#16224D"/><path d="M22.88 18.041c-.762 0-1.389.621-1.389 1.39 0 .76.621 1.388 1.389 1.388.762 0 1.389-.62 1.389-1.389a1.396 1.396 0 00-1.389-1.389zm0 1.965a.585.585 0 01-.582-.582c0-.32.262-.582.582-.582.32 0 .582.262.582.582a.589.589 0 01-.582.582zm-10.208-5.843h-2.093c-.518 0-.518.806 0 .806h2.093c.518 0 .518-.806 0-.806zm0 1.587h-2.093c-.518 0-.518.807 0 .807h2.093c.518 0 .518-.807 0-.807zm0 1.581h-2.093c-.518 0-.518.806 0 .806h2.093c.518 0 .518-.806 0-.806z" fill="#16224D"/><path d="M6.06 20.486c-.351-.268-.703-.537-1.055-.813V15.68c2.24-.762 4.486-1.53 6.726-2.291a.419.419 0 00.295-.39V8.39h2.937v4.762c0 .275-.025.467.205.672.224.205.538.345.794.512l2.17 1.402c.434.281.844-.416.409-.698-.922-.595-1.85-1.19-2.771-1.786V8.39h3.968c.915 1.05 1.83 2.093 2.745 3.143v1.465c0 .519.807.519.807 0 0-.512.09-1.1 0-1.606-.064-.365-.448-.672-.685-.94-.487-.564-.98-1.12-1.472-1.684-.288-.327-.576-.8-.928-1.063-.218-.166-.48-.121-.743-.121h-3.961a.48.48 0 00-.269 0h-4.877c-.518 0-.518.806 0 .806h.87v4.32c-1.12.384-2.246.762-3.366 1.146l-.134-2.573c-.013-.3.051-.825-.16-1.075-.282-.333-.851-.557-1.21-.787-.435-.282-.845.416-.41.697.314.205.628.403.941.608.058 1.133.116 2.272.18 3.405-.858.294-1.716.582-2.567.877a.419.419 0 00-.294.39v3.578c0 .365-.109.934.16 1.216.358.384.883.672 1.299.992.403.313.806-.39.397-.698zm11.687.608h-3.84c-.518 0-.518.807 0 .807h3.84c.519 0 .519-.807 0-.807z" fill="#16224D"/></svg>