<?xml version="1.0" encoding="UTF-8"?><svg id="a" xmlns="http://www.w3.org/2000/svg" viewBox="0 0 32 32"><path d="M24.82,0H7.18C3.22,0,0,3.22,0,7.18V24.82c0,3.97,3.22,7.18,7.18,7.18H24.82c3.97,0,7.18-3.22,7.18-7.18V7.18c0-3.97-3.22-7.18-7.18-7.18Z" style="fill:#00c7ff;"/><path d="M13.01,20.07c-.76-.02-1.49-.27-2.09-.72-.61-.45-1.06-1.08-1.29-1.8,.51,.11,1.05,.11,1.56,0-.49-.11-.94-.33-1.35-.63-.4-.3-.73-.68-.98-1.11-.36-.58-.55-1.26-.53-1.94,.5,.27,1.05,.43,1.62,.44-.76-.52-1.3-1.32-1.5-2.22-.2-.9-.06-1.84,.41-2.63,.91,1.13,2.05,2.05,3.34,2.71,1.29,.66,2.7,1.04,4.15,1.13,0-.14,0-.27-.06-.4-.1-.75,.04-1.52,.4-2.19,.36-.67,.92-1.21,1.6-1.55,.68-.34,1.45-.45,2.2-.32,.75,.13,1.44,.48,1.98,1.02,.02,.03,.05,.04,.09,.05,.03,0,.07,.01,.1,0,.74-.16,1.46-.43,2.12-.81-.26,.81-.8,1.51-1.52,1.97,.7-.08,1.38-.26,2.03-.54l-.37,.54c-.38,.47-.83,.89-1.32,1.25-.02,.01-.03,.03-.04,.05,0,.02-.01,.04-.01,.06,.02,.54,0,1.08-.07,1.62-.14,1.12-.46,2.21-.94,3.24-.49,1.06-1.15,2.03-1.96,2.87-1.35,1.41-3.09,2.38-5,2.78-.67,.14-1.35,.23-2.03,.24-2.05,.07-4.07-.47-5.81-1.56l-.09-.06c1.23,.13,2.47-.05,3.61-.52,.62-.25,1.2-.58,1.73-.99Z" style="fill:#fff; fill-rule:evenodd;"/></svg>